<svg width="60" height="92" viewBox="0 0 60 92" fill="none" xmlns="http://www.w3.org/2000/svg">
<path d="M25.5982 1.91611C25.8585 1.82393 25.9948 1.53819 25.9026 1.27789C25.8104 1.01758 25.5247 0.881291 25.2644 0.973466L25.5982 1.91611ZM23.8167 57.3743L23.8709 56.8773L23.8167 57.3743ZM15.0011 85.5269L15.3543 85.173L15.0011 85.5269ZM59.7728 84.0321C59.8883 83.7812 59.7786 83.4843 59.5278 83.3688L55.4402 81.4868C55.1894 81.3713 54.8924 81.4811 54.7769 81.7319C54.6614 81.9827 54.7712 82.2797 55.022 82.3952L58.6554 84.068L56.9825 87.7014C56.867 87.9523 56.9767 88.2492 57.2276 88.3647C57.4784 88.4802 57.7754 88.3705 57.8909 88.1196L59.7728 84.0321ZM25.2644 0.973466C10.245 6.29198 1.31223 19.5291 0.403117 31.9393C-0.0518671 38.1502 1.50281 44.1743 5.33733 48.8835C9.17516 53.5968 15.2571 56.9443 23.7625 57.8714L23.8709 56.8773C15.5797 55.9735 9.75689 52.7275 6.11277 48.2521C2.46534 43.7727 0.960871 38.0129 1.40044 32.0123C2.28045 19.9995 10.9516 7.10263 25.5982 1.91611L25.2644 0.973466ZM23.7625 57.8714C39.8107 59.6206 49.0431 49.5188 51.5044 40.9231C52.12 38.7733 52.3181 36.6989 52.0817 34.9129C51.8457 33.1298 51.1699 31.5955 49.9995 30.593C48.8169 29.5799 47.199 29.1695 45.2151 29.5081C43.2442 29.8443 40.8961 30.9195 38.178 32.8909L38.7652 33.7004C41.4139 31.7793 43.6188 30.7949 45.3833 30.4938C47.1347 30.195 48.4348 30.5694 49.349 31.3525C50.2754 32.1461 50.8753 33.4193 51.0904 35.0441C51.305 36.6659 51.1295 38.5998 50.543 40.6479C48.1963 48.8437 39.3677 58.5664 23.8709 56.8773L23.7625 57.8714ZM38.178 32.8909C27.4462 40.6749 17.0038 49.2935 11.5129 58.2541C8.76175 62.7438 7.23071 67.3554 7.56049 72.0139C7.89087 76.6807 10.0837 81.3248 14.6479 85.8808L15.3543 85.173C10.9226 80.7492 8.86789 76.3207 8.558 71.9433C8.24753 67.5577 9.6835 63.1535 12.3656 58.7766C17.7411 50.0041 28.0298 41.4869 38.7652 33.7004L38.178 32.8909ZM14.6479 85.8808C18.6388 89.8646 24.677 91.3699 32.2558 90.9428C39.8392 90.5155 49.0484 88.1506 59.492 84.292L59.1454 83.354C48.7419 87.1978 39.6396 89.5252 32.1995 89.9444C24.755 90.3639 19.0579 88.8699 15.3543 85.173L14.6479 85.8808Z" fill="white"/>
</svg>
