<svg width="23" height="17" viewBox="0 0 23 17" fill="none" xmlns="http://www.w3.org/2000/svg">
<path d="M22.9543 8.1729C22.0526 5.84036 20.4871 3.82318 18.4514 2.37067C16.4157 0.918152 13.999 0.0939752 11.5 0C9.00099 0.0939752 6.58429 0.918152 4.54859 2.37067C2.51289 3.82318 0.947424 5.84036 0.0456751 8.1729C-0.015225 8.34134 -0.015225 8.5258 0.0456751 8.69425C0.947424 11.0268 2.51289 13.044 4.54859 14.4965C6.58429 15.949 9.00099 16.7732 11.5 16.8671C13.999 16.7732 16.4157 15.949 18.4514 14.4965C20.4871 13.044 22.0526 11.0268 22.9543 8.69425C23.0152 8.5258 23.0152 8.34134 22.9543 8.1729ZM11.5 15.3338C3.3167 15.3338 3.3167 1.53338 11.5 1.53338C19.6833 1.53338 19.6833 15.3338 11.5 15.3338Z" fill="#F2F2F2"/>
<path d="M11.4986 3.83301C10.5888 3.83301 9.69936 4.1028 8.94287 4.60827C8.18639 5.11374 7.59678 5.83218 7.2486 6.67274C6.90043 7.51331 6.80933 8.43824 6.98683 9.33058C7.16433 10.2229 7.60245 11.0426 8.24579 11.6859C8.88913 12.3293 9.70879 12.7674 10.6011 12.9449C11.4935 13.1224 12.4184 13.0313 13.259 12.6831C14.0995 12.3349 14.818 11.7453 15.3234 10.9888C15.8289 10.2323 16.0987 9.34296 16.0987 8.43314C16.0987 7.21311 15.614 6.04305 14.7514 5.18035C13.8887 4.31766 12.7186 3.83301 11.4986 3.83301ZM11.4986 11.4999C10.892 11.4999 10.2991 11.32 9.79477 10.9831C9.29045 10.6461 8.89737 10.1671 8.66526 9.60673C8.43314 9.04636 8.37241 8.42974 8.49074 7.83484C8.60907 7.23995 8.90115 6.69351 9.33005 6.26462C9.75894 5.83572 10.3054 5.54364 10.9003 5.42531C11.4952 5.30698 12.1118 5.36771 12.6722 5.59983C13.2325 5.83194 13.7115 6.22502 14.0485 6.72934C14.3855 7.23367 14.5653 7.82659 14.5653 8.43314C14.5653 9.24649 14.2422 10.0265 13.6671 10.6017C13.092 11.1768 12.3119 11.4999 11.4986 11.4999Z" fill="#F2F2F2"/>
</svg>
