<svg width="26" height="26" viewBox="0 0 26 26" fill="none" xmlns="http://www.w3.org/2000/svg">
<path d="M22.2078 6.5H3.79102" stroke="white" stroke-width="1.5" stroke-linecap="round"/>
<path d="M20.4032 9.20837L19.9049 16.6824C19.7132 19.5585 19.6173 20.9967 18.6802 21.8733C17.7431 22.75 16.3019 22.75 13.4193 22.75H12.5816C9.69899 22.75 8.25773 22.75 7.32063 21.8733C6.38355 20.9967 6.28767 19.5585 6.09592 16.6824L5.59766 9.20837" stroke="white" stroke-width="1.5" stroke-linecap="round"/>
<path d="M10.291 11.9166L10.8327 17.3333" stroke="white" stroke-width="1.5" stroke-linecap="round"/>
<path d="M15.7077 11.9166L15.166 17.3333" stroke="white" stroke-width="1.5" stroke-linecap="round"/>
<path d="M7.04102 6.5C7.10155 6.5 7.13182 6.5 7.15926 6.49931C8.05132 6.4767 8.83829 5.90949 9.14184 5.07035C9.15118 5.04453 9.16074 5.01582 9.17988 4.95838L9.28506 4.64285C9.37485 4.3735 9.41974 4.23882 9.47928 4.12447C9.71686 3.66824 10.1564 3.35144 10.6643 3.27033C10.7917 3.25 10.9336 3.25 11.2176 3.25H14.7811C15.065 3.25 15.2071 3.25 15.3344 3.27033C15.8423 3.35144 16.2818 3.66824 16.5194 4.12447C16.579 4.23882 16.6239 4.3735 16.7137 4.64285L16.8189 4.95838C16.8379 5.01575 16.8476 5.04455 16.8569 5.07035C17.1604 5.90949 17.9474 6.4767 18.8395 6.49931C18.8669 6.5 18.8971 6.5 18.9577 6.5" stroke="white" stroke-width="1.5"/>
</svg>
