<svg width="20" height="20" viewBox="0 0 20 20" fill="none" xmlns="http://www.w3.org/2000/svg">
<ellipse cx="9.81752" cy="9.81737" rx="9.81752" ry="9.8175" fill="url(#paint0_linear_461_4077)"/>
<path d="M12.9187 6.27846C12.7889 6.20612 12.6461 6.16011 12.4986 6.14307C12.351 6.12603 12.2016 6.13829 12.0588 6.17916C11.9159 6.22003 11.7826 6.2887 11.6663 6.38125C11.55 6.4738 11.453 6.5884 11.381 6.71851L9.28193 10.5028L8.08062 9.29933C7.97633 9.19114 7.85156 9.10485 7.71362 9.04549C7.57568 8.98613 7.42732 8.95488 7.27719 8.95357C7.12706 8.95227 6.97818 8.98093 6.83923 9.03788C6.70028 9.09483 6.57404 9.17894 6.46788 9.28529C6.36172 9.39164 6.27776 9.5181 6.22091 9.6573C6.16406 9.79651 6.13546 9.94566 6.13676 10.0961C6.13807 10.2465 6.16926 10.3951 6.22851 10.5333C6.28777 10.6715 6.3739 10.7965 6.48189 10.9009L8.74318 13.1663C8.95687 13.3809 9.24519 13.4987 9.54255 13.4987L9.69914 13.4874C9.87244 13.4631 10.0377 13.3989 10.1821 13.2997C10.3264 13.2006 10.4457 13.0692 10.5307 12.916L13.3573 7.81891C13.4295 7.68891 13.4754 7.54594 13.4924 7.39816C13.5094 7.25039 13.4972 7.10071 13.4565 6.95766C13.4157 6.81462 13.3473 6.68101 13.255 6.56447C13.1627 6.44794 13.0484 6.35075 12.9187 6.27846Z" fill="white"/>
<defs>
<linearGradient id="paint0_linear_461_4077" x1="0" y1="9.81737" x2="19.635" y2="9.81737" gradientUnits="userSpaceOnUse">
<stop stop-color="#AA55F4"/>
<stop offset="1" stop-color="#E9489C"/>
</linearGradient>
</defs>
</svg>
