<svg width="17" height="17" viewBox="0 0 17 17" fill="none" xmlns="http://www.w3.org/2000/svg">
<path d="M1 14.125H0.25H1ZM4.75 10.375V9.625V10.375ZM12.25 10.375V9.625V10.375ZM1.75 14.125C1.75 13.3294 2.06607 12.5663 2.62868 12.0037L1.56802 10.943C0.724106 11.7869 0.25 12.9315 0.25 14.125H1.75ZM2.62868 12.0037C3.19129 11.4411 3.95435 11.125 4.75 11.125V9.625C3.55653 9.625 2.41193 10.0991 1.56802 10.943L2.62868 12.0037ZM4.75 11.125H12.25V9.625H4.75V11.125ZM12.25 11.125C13.0456 11.125 13.8087 11.4411 14.3713 12.0037L15.432 10.943C14.5881 10.0991 13.4435 9.625 12.25 9.625V11.125ZM14.3713 12.0037C14.9339 12.5663 15.25 13.3294 15.25 14.125H16.75C16.75 12.9315 16.2759 11.7869 15.432 10.943L14.3713 12.0037ZM15.25 14.125C15.25 14.4234 15.1315 14.7095 14.9205 14.9205L15.9812 15.9812C16.4734 15.4889 16.75 14.8212 16.75 14.125H15.25ZM14.9205 14.9205C14.7095 15.1315 14.4234 15.25 14.125 15.25V16.75C14.8212 16.75 15.4889 16.4734 15.9812 15.9812L14.9205 14.9205ZM14.125 15.25H2.875V16.75H14.125V15.25ZM2.875 15.25C2.57663 15.25 2.29048 15.1315 2.0795 14.9205L1.01884 15.9812C1.51113 16.4734 2.17881 16.75 2.875 16.75V15.25ZM2.0795 14.9205C1.86853 14.7095 1.75 14.4234 1.75 14.125H0.25C0.25 14.8212 0.526562 15.4889 1.01884 15.9812L2.0795 14.9205ZM10.5625 3.8125C10.5625 4.95159 9.63909 5.875 8.5 5.875V7.375C10.4675 7.375 12.0625 5.78001 12.0625 3.8125H10.5625ZM8.5 5.875C7.36091 5.875 6.4375 4.95159 6.4375 3.8125H4.9375C4.9375 5.78001 6.53249 7.375 8.5 7.375V5.875ZM6.4375 3.8125C6.4375 2.67341 7.36091 1.75 8.5 1.75V0.25C6.53249 0.25 4.9375 1.84499 4.9375 3.8125H6.4375ZM8.5 1.75C9.63909 1.75 10.5625 2.67341 10.5625 3.8125H12.0625C12.0625 1.84499 10.4675 0.25 8.5 0.25V1.75Z" fill="white"/>
</svg>
