<svg width="19" height="17" viewBox="0 0 19 17" fill="none" xmlns="http://www.w3.org/2000/svg">
<path d="M15.175 14H12C11.7167 14 11.4793 13.904 11.288 13.712C11.0967 13.52 11.0007 13.2827 11 13C10.9993 12.7173 11.0953 12.48 11.288 12.288C11.4807 12.096 11.718 12 12 12H15.175L14.3 11.125C14.1167 10.925 14.0207 10.6877 14.012 10.413C14.0033 10.1383 14.0993 9.90067 14.3 9.7C14.5007 9.49933 14.734 9.39933 15 9.4C15.266 9.40067 15.4993 9.50067 15.7 9.7L18.3 12.3C18.5 12.5 18.6 12.7333 18.6 13C18.6 13.2667 18.5 13.5 18.3 13.7L15.7 16.3C15.5 16.5 15.2667 16.6 15 16.6C14.7333 16.6 14.5 16.5 14.3 16.3C14.1 16.1 14.004 15.8627 14.012 15.588C14.02 15.3133 14.116 15.0757 14.3 14.875L15.175 14ZM3 14L0.85 16.15C0.683333 16.3167 0.5 16.3583 0.3 16.275C0.0999999 16.1917 0 16.0333 0 15.8V2C0 1.45 0.196 0.979333 0.588 0.588C0.98 0.196666 1.45067 0.000666667 2 0H14C14.55 0 15.021 0.196 15.413 0.588C15.805 0.98 16.0007 1.45067 16 2V6C16 6.28333 15.904 6.521 15.712 6.713C15.52 6.905 15.2827 7.00067 15 7C14.7173 6.99933 14.48 6.90333 14.288 6.712C14.096 6.52067 14 6.28333 14 6V2H2V12H8C8.28333 12 8.521 12.096 8.713 12.288C8.905 12.48 9.00067 12.7173 9 13C8.99933 13.2827 8.90333 13.5203 8.712 13.713C8.52067 13.9057 8.28333 14.0013 8 14H3ZM5 6H11C11.2833 6 11.521 5.904 11.713 5.712C11.905 5.52 12.0007 5.28267 12 5C11.9993 4.71733 11.9033 4.48 11.712 4.288C11.5207 4.096 11.2833 4 11 4H5C4.71667 4 4.47933 4.096 4.288 4.288C4.09667 4.48 4.00067 4.71733 4 5C3.99933 5.28267 4.09533 5.52033 4.288 5.713C4.48067 5.90567 4.718 6.00133 5 6ZM5 10H8C8.28333 10 8.521 9.904 8.713 9.712C8.905 9.52 9.00067 9.28267 9 9C8.99933 8.71733 8.90333 8.48 8.712 8.288C8.52067 8.096 8.28333 8 8 8H5C4.71667 8 4.47933 8.096 4.288 8.288C4.09667 8.48 4.00067 8.71733 4 9C3.99933 9.28267 4.09533 9.52033 4.288 9.713C4.48067 9.90567 4.718 10.0013 5 10Z" fill="white"/>
</svg>
