<svg width="20" height="20" viewBox="0 0 20 20" fill="none" xmlns="http://www.w3.org/2000/svg">
<ellipse cx="9.81752" cy="9.8175" rx="9.81752" ry="9.8175" fill="white"/>
<path d="M12.9226 6.27859C12.7928 6.20624 12.65 6.16023 12.5025 6.14319C12.3549 6.12615 12.2055 6.13842 12.0627 6.17929C11.9199 6.22016 11.7865 6.28883 11.6702 6.38137C11.5539 6.47392 11.4569 6.58852 11.3849 6.71863L9.28584 10.5029L8.08453 9.29945C7.98023 9.19127 7.85547 9.10497 7.71753 9.04561C7.57958 8.98625 7.43122 8.955 7.2811 8.9537C7.13097 8.95239 6.98209 8.98105 6.84313 9.038C6.70418 9.09495 6.57794 9.17906 6.47178 9.28541C6.36562 9.39176 6.28167 9.51822 6.22482 9.65743C6.16797 9.79663 6.13936 9.94578 6.14067 10.0962C6.14197 10.2466 6.17316 10.3952 6.23242 10.5334C6.29167 10.6716 6.37781 10.7966 6.4858 10.9011L8.74709 13.1664C8.96078 13.3811 9.24909 13.4989 9.54645 13.4989L9.70305 13.4875C9.87635 13.4633 10.0417 13.399 10.186 13.2998C10.3303 13.2007 10.4496 13.0693 10.5346 12.9161L13.3613 7.81903C13.4334 7.68903 13.4793 7.54606 13.4963 7.39829C13.5133 7.25051 13.5011 7.10083 13.4604 6.95779C13.4196 6.81474 13.3512 6.68113 13.2589 6.5646C13.1666 6.44806 13.0523 6.35087 12.9226 6.27859Z" fill="#DC4BAF"/>
</svg>
